
        <svg xmlns="http://www.w3.org/2000/svg" xmlns:xlink="http://www.w3.org/1999/xlink" version="1.1" width="3200" 
        height="754.5760716114718" viewBox="0 0 3200 754.5760716114718">
			
			<g transform="scale(10) translate(10, 10)">
				<defs id="SvgjsDefs1210"></defs><g id="SvgjsG1211" featureKey="nameFeature-0" transform="matrix(1.9445164789582405,0,0,1.9445164789582405,-3.8890306398722014,-27.689914215300842)" fill="#40d5fe"><path d="M18.32 42.76 c-0.16 0 -0.36 -0.12 -0.44 -0.28 l-1.2 -2.48 c-0.56 0.08 -1.16 0.12 -1.8 0.12 c-2.36 0 -4.56 -0.6 -6.52 -1.72 s-3.52 -2.68 -4.64 -4.64 s-1.72 -4.16 -1.72 -6.56 s0.6 -4.6 1.72 -6.56 s2.68 -3.48 4.6 -4.6 c1.96 -1.12 4.16 -1.68 6.56 -1.68 s4.6 0.56 6.56 1.68 c1.92 1.12 3.52 2.64 4.64 4.6 s1.68 4.16 1.68 6.56 c0 2.36 -0.56 4.6 -1.68 6.56 c-0.92 1.56 -2.08 2.84 -3.48 3.88 l2 4.28 c0.08 0.08 0.16 0.2 0.16 0.32 c0 0.28 -0.24 0.52 -0.52 0.52 l-5.92 0 z M14 34.28 l-1.6 -3.36 c-0.08 -0.08 -0.12 -0.2 -0.12 -0.32 c0 -0.28 0.24 -0.52 0.52 -0.52 l5.88 0 c0.2 0 0.36 0.12 0.48 0.28 l0.72 1.52 c0.24 -0.32 0.44 -0.68 0.64 -1.04 c0.6 -1.08 0.88 -2.32 0.88 -3.64 s-0.28 -2.52 -0.88 -3.6 c-0.56 -1.08 -1.36 -1.96 -2.36 -2.56 c-0.96 -0.64 -2.04 -0.92 -3.2 -0.92 s-2.28 0.28 -3.28 0.92 c-1.04 0.64 -1.84 1.48 -2.44 2.56 c-0.56 1.08 -0.88 2.28 -0.88 3.6 s0.32 2.52 0.92 3.6 s1.4 1.96 2.4 2.6 c0.72 0.44 1.52 0.76 2.32 0.88 z M42.2 40 c-2.16 0 -3.72 -0.44 -5.36 -1.32 c-1.6 -0.88 -2.88 -2.12 -3.76 -3.76 c-0.88 -1.6 -1.32 -3.52 -1.32 -5.72 l0 -14.08 c0 -0.28 0.24 -0.48 0.52 -0.48 l5.2 0 c0.28 0 0.48 0.2 0.48 0.48 l0 14.08 c0 1.6 0.44 2.84 1.28 3.72 s1.6 1.32 3 1.32 s2.12 -0.44 2.92 -1.28 c0.8 -0.88 1.2 -2.16 1.2 -3.76 l0 -14.08 c0 -0.28 0.24 -0.48 0.52 -0.48 l5.2 0 c0.28 0 0.52 0.2 0.52 0.48 l0 14.08 c0 2.2 -0.44 4.12 -1.32 5.72 c-0.84 1.64 -2.12 2.88 -3.72 3.76 s-3.2 1.32 -5.36 1.32 z M57.120000000000005 40 c-0.16 0 -0.32 -0.08 -0.4 -0.24 c-0.12 -0.12 -0.12 -0.32 -0.08 -0.48 l9.32 -23.96 c0.08 -0.2 0.28 -0.32 0.48 -0.32 l5.36 0 c0.2 0 0.4 0.12 0.48 0.32 l9.16 23.96 c0.04 0.16 0.04 0.32 -0.08 0.48 c-0.08 0.16 -0.24 0.24 -0.4 0.24 l-5.56 0 c-0.2 0 -0.4 -0.12 -0.48 -0.32 l-1.48 -3.68 l-9 0.04 l-1.48 3.64 c-0.08 0.2 -0.28 0.32 -0.48 0.32 l-5.36 0 z M66.08 31 l5.76 0 l-2.88 -8.48 z M85.6 40 c-0.28 0 -0.52 -0.24 -0.52 -0.52 l0 -23.96 c0 -0.28 0.24 -0.52 0.52 -0.52 l4.72 0 c0.16 0 0.32 0.08 0.44 0.2 l9.2 14.2 l0 -13.88 c0 -0.28 0.24 -0.52 0.52 -0.52 l4.92 0 c0.28 0 0.52 0.24 0.52 0.52 l0 23.96 c0 0.28 -0.24 0.52 -0.52 0.52 l-4.72 0 c-0.16 0 -0.32 -0.08 -0.44 -0.2 l-9.16 -14.12 l0 13.8 c0 0.28 -0.24 0.52 -0.52 0.52 l-4.96 0 z M116.4 40 c-0.28 0 -0.48 -0.24 -0.48 -0.52 l0 -18.88 l-5.48 0 c-0.28 0 -0.52 -0.2 -0.52 -0.48 l0 -4.6 c0 -0.28 0.24 -0.52 0.52 -0.52 l17.16 0 c0.32 0 0.52 0.24 0.52 0.52 l0 4.6 c0 0.28 -0.2 0.48 -0.52 0.48 l-5.48 0 l0 18.88 c0 0.28 -0.24 0.52 -0.52 0.52 l-5.2 0 z M143.4 40 c-2.4 0 -4.6 -0.56 -6.52 -1.68 c-1.96 -1.12 -3.52 -2.72 -4.68 -4.64 c-1.12 -1.96 -1.68 -4.2 -1.68 -6.6 c0 -2.36 0.56 -4.56 1.68 -6.52 c1.16 -1.96 2.68 -3.52 4.64 -4.64 s4.16 -1.68 6.56 -1.68 c2.36 0 4.56 0.56 6.52 1.68 s3.52 2.68 4.64 4.64 c1.16 1.96 1.72 4.16 1.72 6.52 c0 2.4 -0.56 4.6 -1.72 6.56 c-1.12 1.96 -2.68 3.52 -4.64 4.68 c-1.96 1.12 -4.16 1.68 -6.52 1.68 z M143.48000000000002 34.24 c1.16 0 2.24 -0.32 3.2 -0.92 c1 -0.64 1.8 -1.48 2.36 -2.6 c0.6 -1.08 0.88 -2.32 0.88 -3.64 c0 -1.28 -0.28 -2.52 -0.88 -3.6 c-0.56 -1.08 -1.36 -1.92 -2.36 -2.56 c-0.96 -0.6 -2.04 -0.92 -3.2 -0.92 c-1.2 0 -2.28 0.32 -3.28 0.92 c-1.04 0.64 -1.84 1.48 -2.44 2.56 c-0.6 1.12 -0.88 2.32 -0.88 3.6 c0 1.32 0.28 2.56 0.88 3.64 c0.64 1.08 1.44 1.96 2.44 2.56 c1 0.64 2.08 0.96 3.28 0.96 z"></path></g>
			</g>
		</svg>
	